<svg width="116" height="120" viewBox="0 0 116 120" fill="none" xmlns="http://www.w3.org/2000/svg">
<ellipse cx="24.8366" cy="7.89651" rx="24.8366" ry="7.89651" transform="matrix(-0.742493 0.669854 0.669854 0.742493 36.882 31.991)" fill="#FFABAB"/>
<ellipse cx="56.7842" cy="54.491" rx="24.8843" ry="7.85346" transform="rotate(42.0558 56.7842 54.491)" fill="#FFABAB"/>
<ellipse cx="29.1103" cy="8.32822" rx="29.1103" ry="8.32822" transform="matrix(-0.352226 0.935915 0.935915 0.352226 31.8117 59.224)" fill="#FFABAB"/>
<path d="M61.9589 116.647C57.6541 118.267 49.5738 107.383 43.911 92.3356C38.2482 77.2887 37.1473 63.7775 41.4521 62.1574C45.7569 60.5373 53.8372 71.4219 59.5 86.4688C65.1628 101.516 66.2637 115.027 61.9589 116.647Z" fill="#FFABAB"/>
<circle cx="40.3568" cy="22.3478" r="19.3568" fill="#FFABAB"/>
<path d="M40.3564 41.7048C51.0469 41.7048 59.7139 54.7043 59.7139 70.74C59.7138 75.919 58.8088 80.781 57.2246 84.991H23.4893C21.905 80.781 21 75.9191 21 70.74C21 54.7045 29.6661 41.7051 40.3564 41.7048Z" fill="#FFABAB"/>
<path d="M80.67 113.971C80.7124 113.971 80.7321 107.617 80.6276 97.5782C80.5805 93.0634 78.6958 88.7009 75.888 81.9634C73.3563 75.8882 71.7314 72.5363 71.8222 71.5244C71.9123 70.5213 72.9594 68.8862 73.1247 66.1609C73.254 64.0298 76.4918 55.0457 81.0257 42.5168C82.8579 37.4537 83.1747 36.1302 82.2603 33.0203C79.9041 26.7996 77.5088 19.4127 76.2477 13.9495C75.7974 11.8733 75.7324 11.2108 75.5071 9.95016" stroke="#57311D" stroke-width="4" stroke-linecap="round"/>
<path d="M84.2276 34.7097C84.2488 34.6447 85.072 32.9653 88.0868 27.8679C93.8571 19.209 98.1766 13.6969 100.18 13.4742C101.541 13.3986 103.598 13.3986 105.719 13.3986" stroke="#57311D" stroke-width="4" stroke-linecap="round"/>
<path d="M80.6401 52.1721C80.746 52.1721 84.0966 52.1 89.6301 51.8824C91.8677 51.7369 92.947 51.52 93.7654 51.3359C94.5839 51.1518 95.1087 51.007 96.572 50.8578" stroke="#57311D" stroke-width="4" stroke-linecap="round"/>
<path d="M104.013 13.0325C104.02 12.2612 104.634 9.12464 106.194 6.32721C107.256 4.42289 108.781 3.26552 109.727 2.59759C110.708 1.90463 112.198 1.91033 113.202 2.13567C115.222 2.58887 111.812 7.57648 110.447 9.7488C110.096 10.3077 109.246 10.4741 109.017 10.3655C107.409 9.6022 110.795 7.43495 110.892 6.6647C110.933 6.33972 110.136 6.31263 109.539 6.90955C107.981 8.46724 107.442 10.5476 107 10.903C106.865 11.0117 106.951 10.0534 107.221 9.48287C107.491 8.91237 107.954 8.52315 108.49 8.26332C109.027 8.00348 109.623 7.88481 109.921 8.14507C110.219 8.40534 110.2 9.04814 110.044 9.6145C109.888 10.1809 109.594 10.6513 109.222 11.1162C108.85 11.581 108.409 12.026 107.185 12.7885" stroke="#1D5730" stroke-width="4" stroke-linecap="round"/>
<path d="M111.825 2.91639V2.98061" stroke="#1D5730" stroke-width="4" stroke-linecap="round"/>
<path d="M73.8033 15.357C72.3692 15.357 68.9109 15.1059 67.2474 14.1269C65.4271 13.0556 64.7968 11.3372 63.8442 8.26414C63.636 7.59246 63.588 7.27278 63.65 7.27464C64.7587 7.30783 68.6778 9.89829 71.6772 10.762C72.4655 10.989 73.1664 11.6549 73.7725 12.3497C74.0624 12.6821 74.2014 13.0657 74.117 13.3072C74.0325 13.5486 73.691 13.6598 73.2935 13.6434C72.896 13.6271 72.4529 13.48 71.3378 12.9952C70.2227 12.5105 68.449 11.6926 66.4144 10.7228" stroke="#1D5730" stroke-width="4" stroke-linecap="round"/>
<path d="M89.4973 49.5154C89.5152 49.0667 89.9597 47.1442 91.1092 45.0586C92.3735 42.7649 93.8258 42.2088 95.4207 41.5129C96.131 41.203 96.7605 40.6392 97.2175 40.1461C97.338 40.0161 97.4394 40.48 97.3793 40.8312C97.1273 42.306 95.7561 43.8569 95.1236 45.5853C94.5301 47.2075 93.1096 48.6629 91.9226 49.326C91.7056 49.261 91.5992 48.9279 91.6314 48.6249C91.6636 48.3219 91.8375 48.0592 92.0968 47.7812" stroke="#1D5730" stroke-width="4" stroke-linecap="round"/>
<path d="M75.7489 10.431C75.2973 10.431 73.4175 9.98091 70.8646 8.67471C69.9495 8.17332 69.138 7.87559 68.273 7.75111C67.8482 7.71697 67.4523 7.74174 66.838 8.40231" stroke="#1D5730" stroke-width="4" stroke-linecap="round"/>
<path d="M64.4964 6.76778C65.7615 6.77191 69.2958 7.06315 71.0454 8.1374C72.2117 9.43624 73.1221 10.2368 73.8647 10.4591C74.2449 10.5034 74.632 10.4084 75.6049 9.57541" stroke="#1D5730" stroke-width="4" stroke-linecap="round"/>
<path d="M64.1726 6.96173C64.5463 6.9096 66.6362 6.42282 71.095 6.20156C72.4604 6.36235 73.2886 6.65397 74.0918 7.10277C74.4961 7.38225 74.8936 7.7668 75.7301 9.09679" stroke="#1D5730" stroke-width="4" stroke-linecap="round"/>
</svg>
