<svg width="79" height="125" viewBox="0 0 79 125" fill="none" xmlns="http://www.w3.org/2000/svg">
<ellipse cx="21.7929" cy="6.38834" rx="21.7929" ry="6.38834" transform="matrix(-0.707017 0.707196 0.707196 0.707017 30.816 33)" fill="#FFABAB"/>
<ellipse cx="58.9258" cy="52.9286" rx="21.7929" ry="6.38834" transform="rotate(45.0072 58.9258 52.9286)" fill="#FFABAB"/>
<path d="M51.0007 84.5655C53.2102 87.0146 60.2447 84.2697 66.7126 78.4345C73.1805 72.5994 76.6326 65.8837 74.4231 63.4345C72.2135 60.9854 65.1791 63.7303 58.7112 69.5655C52.2433 75.4006 48.7912 82.1163 51.0007 84.5655Z" fill="#FFABAB"/>
<ellipse cx="29.1103" cy="8.32822" rx="29.1103" ry="8.32822" transform="matrix(-0.352226 0.935915 0.935915 0.352226 30.5068 64)" fill="#FFABAB"/>
<path d="M60.654 121.423C56.3492 123.043 48.2689 112.158 42.6061 97.1116C36.9433 82.0647 35.8424 68.5535 40.1472 66.9334C44.452 65.3133 52.5323 76.1979 58.1951 91.2448C63.8579 106.292 64.9588 119.803 60.654 121.423Z" fill="#FFABAB"/>
<circle cx="39.3568" cy="19.3568" r="19.3568" fill="#FFABAB"/>
<path d="M39.3564 35.7139C50.0469 35.7139 58.7139 48.7133 58.7139 64.749C58.7138 69.928 57.8088 74.7901 56.2246 79H22.4893C20.905 74.79 20 69.9281 20 64.749C20 48.7135 28.6661 35.7141 39.3564 35.7139Z" fill="#FFABAB"/>
<path d="M28.4231 83.5655C26.2135 86.0146 19.1791 83.2697 12.7112 77.4345C6.24327 71.5994 2.79117 64.8837 5.00069 62.4345C7.21022 59.9854 14.2447 62.7303 20.7126 68.5655C27.1805 74.4006 30.6326 81.1163 28.4231 83.5655Z" fill="#FFABAB"/>
<rect x="14" y="49" width="52" height="39" rx="3" fill="#825137"/>
<ellipse cx="18" cy="73" rx="8" ry="5" fill="#FF9595"/>
<ellipse cx="61" cy="74" rx="8" ry="5" fill="#FF9595"/>
</svg>
