<svg width="81" height="117" viewBox="0 0 81 117" fill="none" xmlns="http://www.w3.org/2000/svg">
<ellipse cx="24.8366" cy="7.89651" rx="24.8366" ry="7.89651" transform="matrix(-0.742493 0.669854 0.669854 0.742493 36.882 29)" fill="#FFABAB"/>
<ellipse cx="56.7842" cy="51.5" rx="24.8843" ry="7.85346" transform="rotate(42.0558 56.7842 51.5)" fill="#FFABAB"/>
<ellipse cx="29.1103" cy="8.32822" rx="29.1103" ry="8.32822" transform="matrix(-0.352226 0.935915 0.935915 0.352226 31.8117 56.233)" fill="#FFABAB"/>
<path d="M61.9589 113.656C57.6541 115.276 49.5738 104.392 43.911 89.3446C38.2482 74.2978 37.1473 60.7865 41.4521 59.1664C45.7569 57.5464 53.8372 68.4309 59.5 83.4778C65.1628 98.5247 66.2637 112.036 61.9589 113.656Z" fill="#FFABAB"/>
<circle cx="40.3568" cy="19.3568" r="19.3568" fill="#FFABAB"/>
<path d="M40.3564 38.7139C51.0469 38.7139 59.7139 51.7133 59.7139 67.749C59.7138 72.928 58.8088 77.7901 57.2246 82H23.4893C21.905 77.79 21 72.9281 21 67.749C21 51.7135 29.6661 38.7141 40.3564 38.7139Z" fill="#FFABAB"/>
</svg>
