<svg width="99" height="117" viewBox="0 0 99 117" fill="none" xmlns="http://www.w3.org/2000/svg">
<ellipse cx="24.8366" cy="7.89651" rx="24.8366" ry="7.89651" transform="matrix(-0.742493 0.669854 0.669854 0.742493 36.882 29)" fill="#FFABAB"/>
<ellipse cx="56.7842" cy="51.5" rx="24.8843" ry="7.85346" transform="rotate(42.0558 56.7842 51.5)" fill="#FFABAB"/>
<ellipse cx="29.1103" cy="8.32822" rx="29.1103" ry="8.32822" transform="matrix(-0.352226 0.935915 0.935915 0.352226 31.8117 56.233)" fill="#FFABAB"/>
<path d="M61.9589 113.656C57.6541 115.276 49.5738 104.392 43.911 89.3446C38.2482 74.2978 37.1473 60.7865 41.4521 59.1664C45.7569 57.5464 53.8372 68.4309 59.5 83.4778C65.1628 98.5247 66.2637 112.036 61.9589 113.656Z" fill="#FFABAB"/>
<circle cx="40.3568" cy="19.3568" r="19.3568" fill="#FFABAB"/>
<path d="M40.3564 38.7139C51.0469 38.7139 59.7139 51.7133 59.7139 67.749C59.7138 72.928 58.8088 77.7901 57.2246 82H23.4893C21.905 77.79 21 72.9281 21 67.749C21 51.7135 29.6661 38.7141 40.3564 38.7139Z" fill="#FFABAB"/>
<path d="M73.352 67.7178C73.3084 67.7178 73.264 68.8146 73.525 70.3651C73.6746 71.2537 78.317 70.2619 83.2357 69.7873C84.874 69.6292 84.6317 68.7865 84.4028 68.2162C84.1739 67.6459 83.9302 67.1557 83.3781 67.0563C81.973 67.2634 80.1023 67.6023 77.6736 67.6608C76.2368 67.696 74.3849 67.7425 72.4769 67.7904" stroke="black" stroke-width="4" stroke-linecap="round"/>
<path d="M73.3692 70.8962C73.3255 70.8962 73.2812 72.2149 73.365 75.2761C73.4707 77.0187 73.7045 79.1453 74.0462 81.1573C74.3879 83.1693 74.8302 85.0021 75.5379 87.3644" stroke="black" stroke-width="4" stroke-linecap="round"/>
<path d="M84.3365 68.7744C84.3401 69.7119 84.5332 72.8984 84.8293 76.1337C85.1574 79.777 85.5477 82.98 85.6704 86.086C85.6937 86.8052 85.7402 87.5012 85.7881 88.2182" stroke="black" stroke-width="4" stroke-linecap="round"/>
<rect x="62" y="78" width="37" height="36" rx="3" fill="black"/>
<path d="M69.747 87.2141V106.964" stroke="#848484" stroke-width="4" stroke-linecap="round"/>
<path d="M91.747 87.2141V106.964" stroke="#848484" stroke-width="4" stroke-linecap="round"/>
<path d="M80.747 87.2141V106.964" stroke="#848484" stroke-width="4" stroke-linecap="round"/>
</svg>
